<svg width="66" height="35" viewBox="0 0 66 35" fill="none" xmlns="http://www.w3.org/2000/svg">
<g clip-path="url(#clip0_5_338)">
<g clip-path="url(#clip1_5_338)">
<g clip-path="url(#clip2_5_338)">
<g clip-path="url(#clip3_5_338)">
<g clip-path="url(#clip4_5_338)">
<g clip-path="url(#clip5_5_338)">
<g clip-path="url(#clip6_5_338)">
<path d="M6.00253 34.7641H4.10677L0.00253296 21.8673H1.74195L3.79406 28.8269C4.02859 29.6001 4.23446 30.3144 4.41165 30.9698C4.58625 31.6251 4.79732 32.3328 5.04488 33.093H5.12305C5.35758 32.3328 5.56605 31.6251 5.74846 30.9698C5.93087 30.3144 6.13283 29.6001 6.35433 28.8269L8.40644 21.8673H10.0677L6.00253 34.7641ZM16.3608 35C15.553 35 14.813 34.8427 14.1406 34.5282C13.4709 34.2136 12.895 33.7641 12.413 33.1795C11.9309 32.5976 11.5556 31.8898 11.2872 31.0563C11.0214 30.2253 10.8885 29.2921 10.8885 28.2567C10.8885 27.2213 11.0214 26.2934 11.2872 25.4729C11.5556 24.6551 11.9309 23.9604 12.413 23.389C12.895 22.8202 13.4709 22.385 14.1406 22.0836C14.813 21.7821 15.553 21.6314 16.3608 21.6314C17.1687 21.6314 17.9074 21.7848 18.5771 22.0914C19.2494 22.4008 19.8292 22.8398 20.3165 23.4086C20.8064 23.9801 21.1843 24.6747 21.4501 25.4926C21.7185 26.313 21.8527 27.2344 21.8527 28.2567C21.8527 29.2921 21.7185 30.2253 21.4501 31.0563C21.1843 31.8898 20.8064 32.5976 20.3165 33.1795C19.8292 33.7641 19.2494 34.2136 18.5771 34.5282C17.9074 34.8427 17.1687 35 16.3608 35ZM16.3608 33.5648C16.9341 33.5648 17.4514 33.4403 17.9126 33.1913C18.3765 32.9423 18.7739 32.5845 19.1048 32.1179C19.4384 31.6539 19.6963 31.0969 19.8788 30.4468C20.0612 29.7994 20.1524 29.0693 20.1524 28.2567C20.1524 27.4572 20.0612 26.7364 19.8788 26.0942C19.6963 25.4519 19.4384 24.908 19.1048 24.4624C18.7739 24.0168 18.3765 23.6721 17.9126 23.4283C17.4514 23.1871 16.9341 23.0666 16.3608 23.0666C15.7875 23.0666 15.269 23.1871 14.8051 23.4283C14.3439 23.6721 13.9465 24.0168 13.613 24.4624C13.282 24.908 13.0253 25.4519 12.8429 26.0942C12.6605 26.7364 12.5693 27.4572 12.5693 28.2567C12.5693 29.0693 12.6605 29.7994 12.8429 30.4468C13.0253 31.0969 13.282 31.6539 13.613 32.1179C13.9465 32.5845 14.3439 32.9423 14.8051 33.1913C15.269 33.4403 15.7875 33.5648 16.3608 33.5648ZM31.8397 34.7641H24.6084V21.8673H26.2305V33.3683H31.8397V34.7641ZM36.0573 34.7641H34.4156V23.2435H30.5459V21.8673H39.927V23.2435H36.0573V34.7641ZM43.6599 27.549L43.054 29.5149H46.9042L46.2983 27.549C46.0638 26.8281 45.8423 26.1099 45.6338 25.3943C45.4253 24.6813 45.2169 23.9513 45.0084 23.2042H44.9302C44.7348 23.9513 44.5328 24.6813 44.3244 25.3943C44.1159 26.1099 43.8944 26.8281 43.6599 27.549ZM41.4123 34.7641H39.7511L44.0898 21.8673H45.927L50.2657 34.7641H48.5263L47.3146 30.8322H42.6436L41.4123 34.7641ZM53.7055 34.7641H52.0833V21.8673H53.7055V34.7641ZM62.0703 35C61.2625 35 60.5198 34.8493 59.8423 34.5478C59.1648 34.2464 58.5745 33.8099 58.0716 33.2385C57.5713 32.6697 57.1804 31.9698 56.899 31.1388C56.6201 30.3053 56.4807 29.3642 56.4807 28.3157C56.4807 27.2803 56.624 26.3497 56.9107 25.524C57.1973 24.6983 57.5947 23.9971 58.1029 23.4204C58.611 22.8438 59.2104 22.4008 59.9009 22.0914C60.5915 21.7848 61.3472 21.6314 62.168 21.6314C62.9498 21.6314 63.6364 21.7913 64.2279 22.1111C64.8221 22.4335 65.3081 22.8044 65.6859 23.2238L64.8064 24.2855C64.4677 23.9185 64.0833 23.6236 63.6534 23.4008C63.2234 23.178 62.7348 23.0666 62.1876 23.0666C61.5752 23.0666 61.0214 23.1871 60.5263 23.4283C60.0312 23.6721 59.6077 24.0194 59.256 24.4703C58.9042 24.9238 58.6332 25.4716 58.4429 26.1138C58.2553 26.756 58.1615 27.4769 58.1615 28.2764C58.1615 29.089 58.2553 29.819 58.4429 30.4665C58.6332 31.1166 58.8976 31.671 59.2364 32.1297C59.5752 32.5884 59.9882 32.9423 60.4755 33.1913C60.9654 33.4403 61.5165 33.5648 62.1289 33.5648C62.7543 33.5648 63.3016 33.4364 63.7706 33.1795C64.2397 32.9253 64.6827 32.5688 65.0996 32.11L65.9986 33.1323C65.4905 33.7221 64.9172 34.1809 64.2788 34.5085C63.6403 34.8362 62.9042 35 62.0703 35Z" fill="white"/>
</g>
</g>
</g>
</g>
<g clip-path="url(#clip7_5_338)">
<g clip-path="url(#clip8_5_338)">
<path d="M34.3119 10.5574H39.5595L36.9357 0H29.0643L26.4405 10.5574H31.6881V15.8361H29.0643V18.4754H36.9357V15.8361H34.3119V10.5574Z" fill="white"/>
</g>
</g>
</g>
</g>
</g>
<defs>
<clipPath id="clip0_5_338">
<rect width="66" height="35" fill="white"/>
</clipPath>
<clipPath id="clip1_5_338">
<rect width="66" height="35" fill="white"/>
</clipPath>
<clipPath id="clip2_5_338">
<rect width="66" height="35" fill="white"/>
</clipPath>
<clipPath id="clip3_5_338">
<rect width="66" height="13.3686" fill="white" transform="translate(0 21.6314)"/>
</clipPath>
<clipPath id="clip4_5_338">
<rect width="66" height="13.3686" fill="white" transform="translate(0 21.6314)"/>
</clipPath>
<clipPath id="clip5_5_338">
<rect width="66" height="13.3686" fill="white" transform="translate(0 21.6314)"/>
</clipPath>
<clipPath id="clip6_5_338">
<rect width="66" height="13.3686" fill="white" transform="translate(0 21.6314)"/>
</clipPath>
<clipPath id="clip7_5_338">
<rect width="13.119" height="18.4754" fill="white" transform="translate(26.4405)"/>
</clipPath>
<clipPath id="clip8_5_338">
<rect width="13.119" height="18.4754" fill="white" transform="translate(26.4405)"/>
</clipPath>
</defs>
</svg>
